# xmcd
#
# Track frame offsets:
# 150
# 10797
# 16447
# 28279
# 32708
# 42457
# 56482
# 62047
# 69437
# 78003
# 86987
# 97102
# 112972
# 120224
# 128648
# 135645
# 145071
# 157663
# 167249
# 172238
# 180072
# 197126
# 207994
# 214480
#
# Disc length: 2916 seconds
#
#
# Revision: 0
# Processed by: cddbd v1.5.2PL0 Copyright (c) Steve Scherf et al.
# Submitted via: FreeRIP 2.951 
#
DISCID=4a0b6218
DTITLE=Pete Seeger - The American Industrial Ballads
DYEAR=2005
DGENRE=Blues
TTITLE0=Peg And Awl
TTITLE1=The Blind Fiddler
TTITLE2=The Buffalo Skinners
TTITLE3=Eight Hour Day
TTITLE4=Hard Times In The Mill
TTITLE5=Roll Down The Line
TTITLE6=Hayseed Like Me
TTITLE7=The Farmer Is The Man
TTITLE8=Come All You Hardy Miners
TTITLE9=He Lies In The American Land
TTITLE10=Casey Jones
TTITLE11=Let Them Wear Their Watches Fine
TTITLE12=Cotton Mill Collic
TTITLE13=Seven Cent Cotton And Forty Cent Meat
TTITLE14=Mill Mother's Lament
TTITLE15=Fare Ye Well, Old Ely Branch
TTITLE16=Beans, Bacon And Gravy
TTITLE17=The Death Of Harry Simms
TTITLE18=Winnsboro Cotton Mill Blues
TTITLE19=Ballard Of Barney Graham
TTITLE20=My Children Are Seven In Number
TTITLE21=Raggedy
TTITLE22=Pittsburgh Town
TTITLE23=Sixty Per Cent
EXTD=Pete Seeger The Legend - Disk 2
EXTT0=
EXTT1=
EXTT2=
EXTT3=
EXTT4=
EXTT5=
EXTT6=
EXTT7=
EXTT8=
EXTT9=
EXTT10=(Alternate Version
EXTT11=
EXTT12=
EXTT13=
EXTT14=
EXTT15=
EXTT16=
EXTT17=
EXTT18=
EXTT19=
EXTT20=
EXTT21=
EXTT22=
EXTT23=
PLAYORDER=
